HIERARCHY
ROOT Hips
{
	OFFSET 0.747674 87.668175 4.689383
	CHANNELS 6 Xposition Yposition Zposition Zrotation Yrotation Xrotation 
	JOINT Spine
	{
		OFFSET -0.000000 8.814246 -2.080107
		CHANNELS 3 Zrotation Yrotation Xrotation
		JOINT Spine1
		{
			OFFSET 0.000000 8.844141 0.000000
			CHANNELS 3 Zrotation Yrotation Xrotation
			JOINT Spine2
			{
				OFFSET -0.000000 11.682268 -0.000000
				CHANNELS 3 Zrotation Yrotation Xrotation
				JOINT Spine3
				{
					OFFSET -0.000000 11.746700 -0.000000
					CHANNELS 3 Zrotation Yrotation Xrotation
					JOINT Neck
					{
						OFFSET -0.000000 17.658264 -0.000000
						CHANNELS 3 Zrotation Yrotation Xrotation
						JOINT Neck1
						{
							OFFSET 0.000000 5.101515 -0.000000
							CHANNELS 3 Zrotation Yrotation Xrotation
							JOINT Head
							{
								OFFSET -0.000000 5.101515 -0.000000
								CHANNELS 3 Zrotation Yrotation Xrotation
								JOINT HeadEnd
								{
									OFFSET 0.000000 11.655085 -0.000000
									CHANNELS 3 Zrotation Yrotation Xrotation
									End Site
									{
										OFFSET 0.000000 0.000000 0.000000
									}
								}
							}
						}
					}
					JOINT RightShoulder
					{
						OFFSET -2.625389 11.175210 -0.000000
						CHANNELS 3 Zrotation Yrotation Xrotation
						JOINT RightArm
						{
							OFFSET -0.000000 10.434715 -0.000000
							CHANNELS 3 Zrotation Yrotation Xrotation
							JOINT RightForeArm
							{
								OFFSET 0.000000 29.628420 0.000000
								CHANNELS 3 Zrotation Yrotation Xrotation
								JOINT RightHand
								{
									OFFSET -0.000000 22.857611 0.000000
									CHANNELS 3 Zrotation Yrotation Xrotation
									JOINT RightHandThumb1
									{
										OFFSET -2.867323 3.959563 2.944291
										CHANNELS 3 Zrotation Yrotation Xrotation
										JOINT RightHandThumb2
										{
											OFFSET 0.000000 3.350399 -0.000000
											CHANNELS 3 Zrotation Yrotation Xrotation
											JOINT RightHandThumb3
											{
												OFFSET 0.000000 3.756509 -0.000000
												CHANNELS 3 Zrotation Yrotation Xrotation
												JOINT RightHandThumb4
												{
													OFFSET -0.000000 3.147345 0.000000
													CHANNELS 3 Zrotation Yrotation Xrotation
													End Site
													{
														OFFSET 0.000000 0.000000 0.000000
													}
												}
											}
										}
									}
									JOINT RightHandIndex1
									{
										OFFSET -0.086752 10.030893 2.345280
										CHANNELS 3 Zrotation Yrotation Xrotation
										JOINT RightHandIndex2
										{
											OFFSET -0.000000 4.061090 0.000000
											CHANNELS 3 Zrotation Yrotation Xrotation
											JOINT RightHandIndex3
											{
												OFFSET 0.000000 3.248873 -0.000000
												CHANNELS 3 Zrotation Yrotation Xrotation
												JOINT RightHandIndex4
												{
													OFFSET -0.000000 2.639709 0.000000
													CHANNELS 3 Zrotation Yrotation Xrotation
													End Site
													{
														OFFSET 0.000000 0.000000 0.000000
													}
												}
											}
										}
									}
									JOINT RightHandMiddle1
									{
										OFFSET 0.104102 9.502952 0.006768
										CHANNELS 3 Zrotation Yrotation Xrotation
										JOINT RightHandMiddle2
										{
											OFFSET 0.000000 4.568727 -0.000000
											CHANNELS 3 Zrotation Yrotation Xrotation
											JOINT RightHandMiddle3
											{
												OFFSET -0.000000 3.654981 0.000000
												CHANNELS 3 Zrotation Yrotation Xrotation
												JOINT RightHandMiddle4
												{
													OFFSET 0.000000 2.741236 -0.000000
													CHANNELS 3 Zrotation Yrotation Xrotation
													End Site
													{
														OFFSET 0.000000 0.000000 0.000000
													}
												}
											}
										}
									}
									JOINT RightHandRing1
									{
										OFFSET 0.086752 8.921708 -2.267442
										CHANNELS 3 Zrotation Yrotation Xrotation
										JOINT RightHandRing2
										{
											OFFSET -0.000000 4.061090 -0.000000
											CHANNELS 3 Zrotation Yrotation Xrotation
											JOINT RightHandRing3
											{
												OFFSET 0.000000 3.654981 -0.000000
												CHANNELS 3 Zrotation Yrotation Xrotation
												JOINT RightHandRing4
												{
													OFFSET -0.000000 2.741236 0.000000
													CHANNELS 3 Zrotation Yrotation Xrotation
													End Site
													{
														OFFSET 0.000000 0.000000 0.000000
													}
												}
											}
										}
									}
									JOINT RightHandPinky1
									{
										OFFSET -0.173504 7.976997 -4.467199
										CHANNELS 3 Zrotation Yrotation Xrotation
										JOINT RightHandPinky2
										{
											OFFSET 0.000000 3.350399 0.000000
											CHANNELS 3 Zrotation Yrotation Xrotation
											JOINT RightHandPinky3
											{
												OFFSET 0.000000 2.842763 -0.000000
												CHANNELS 3 Zrotation Yrotation Xrotation
												JOINT RightHandPinky4
												{
													OFFSET 0.000000 2.639709 0.000000
													CHANNELS 3 Zrotation Yrotation Xrotation
													End Site
													{
														OFFSET 0.000000 0.000000 0.000000
													}
												}
											}
										}
									}
									JOINT RightForeArmEnd
									{
										OFFSET 0.000000 0.000000 0.000000
										CHANNELS 3 Zrotation Yrotation Xrotation
										End Site
										{
											OFFSET 0.000000 0.000000 0.000000
										}
									}
								}
								JOINT RightArmEnd
								{
									OFFSET 0.000000 0.000000 0.000000
									CHANNELS 3 Zrotation Yrotation Xrotation
									End Site
									{
										OFFSET 0.000000 0.000000 0.000000
									}
								}
							}
						}
					}
					JOINT LeftShoulder
					{
						OFFSET 2.625389 11.175210 -0.000000
						CHANNELS 3 Zrotation Yrotation Xrotation
						JOINT LeftArm
						{
							OFFSET 0.000000 10.813635 -0.000000
							CHANNELS 3 Zrotation Yrotation Xrotation
							JOINT LeftForeArm
							{
								OFFSET 0.000000 28.724781 0.000000
								CHANNELS 3 Zrotation Yrotation Xrotation
								JOINT LeftHand
								{
									OFFSET 0.644384 25.716167 -0.328871
									CHANNELS 3 Zrotation Yrotation Xrotation
									JOINT LeftHandThumb1
									{
										OFFSET 2.867323 3.959563 2.944291
										CHANNELS 3 Zrotation Yrotation Xrotation
										JOINT LeftHandThumb2
										{
											OFFSET 0.000000 3.350399 -0.000000
											CHANNELS 3 Zrotation Yrotation Xrotation
											JOINT LeftHandThumb3
											{
												OFFSET 0.000000 3.756509 -0.000000
												CHANNELS 3 Zrotation Yrotation Xrotation
												JOINT LeftHandThumb4
												{
													OFFSET -0.000000 3.100000 -0.000000
													CHANNELS 3 Zrotation Yrotation Xrotation
													End Site
													{
														OFFSET 0.000000 0.000000 0.000000
													}
												}
											}
										}
									}
									JOINT LeftHandIndex1
									{
										OFFSET 0.086752 10.030893 2.345280
										CHANNELS 3 Zrotation Yrotation Xrotation
										JOINT LeftHandIndex2
										{
											OFFSET 0.000000 4.061090 0.000000
											CHANNELS 3 Zrotation Yrotation Xrotation
											JOINT LeftHandIndex3
											{
												OFFSET -0.000000 3.248873 0.000000
												CHANNELS 3 Zrotation Yrotation Xrotation
												JOINT LeftHandIndex4
												{
													OFFSET 0.000000 2.639709 0.000000
													CHANNELS 3 Zrotation Yrotation Xrotation
													End Site
													{
														OFFSET 0.000000 0.000000 0.000000
													}
												}
											}
										}
									}
									JOINT LeftHandMiddle1
									{
										OFFSET -0.104102 9.502952 0.006768
										CHANNELS 3 Zrotation Yrotation Xrotation
										JOINT LeftHandMiddle2
										{
											OFFSET 0.000000 4.568727 0.000000
											CHANNELS 3 Zrotation Yrotation Xrotation
											JOINT LeftHandMiddle3
											{
												OFFSET 0.000000 3.654981 0.000000
												CHANNELS 3 Zrotation Yrotation Xrotation
												JOINT LeftHandMiddle4
												{
													OFFSET 0.000000 2.741236 0.000000
													CHANNELS 3 Zrotation Yrotation Xrotation
													End Site
													{
														OFFSET 0.000000 0.000000 0.000000
													}
												}
											}
										}
									}
									JOINT LeftHandRing1
									{
										OFFSET -0.086752 8.921708 -2.267442
										CHANNELS 3 Zrotation Yrotation Xrotation
										JOINT LeftHandRing2
										{
											OFFSET -0.000000 4.061090 -0.000000
											CHANNELS 3 Zrotation Yrotation Xrotation
											JOINT LeftHandRing3
											{
												OFFSET 0.000000 3.654981 0.000000
												CHANNELS 3 Zrotation Yrotation Xrotation
												JOINT LeftHandRing4
												{
													OFFSET 0.000000 2.741236 0.000000
													CHANNELS 3 Zrotation Yrotation Xrotation
													End Site
													{
														OFFSET 0.000000 0.000000 0.000000
													}
												}
											}
										}
									}
									JOINT LeftHandPinky1
									{
										OFFSET 0.173504 7.976997 -4.467199
										CHANNELS 3 Zrotation Yrotation Xrotation
										JOINT LeftHandPinky2
										{
											OFFSET -0.000000 3.350399 -0.000000
											CHANNELS 3 Zrotation Yrotation Xrotation
											JOINT LeftHandPinky3
											{
												OFFSET 0.000000 2.842763 0.000000
												CHANNELS 3 Zrotation Yrotation Xrotation
												JOINT LeftHandPinky4
												{
													OFFSET -0.000000 2.639709 0.000000
													CHANNELS 3 Zrotation Yrotation Xrotation
													End Site
													{
														OFFSET 0.000000 0.000000 0.000000
													}
												}
											}
										}
									}
									JOINT LeftForeArmEnd
									{
										OFFSET 0.000000 0.000000 0.000000
										CHANNELS 3 Zrotation Yrotation Xrotation
										End Site
										{
											OFFSET 0.000000 0.000000 0.000000
										}
									}
								}
								JOINT LeftArmEnd
								{
									OFFSET 0.000000 0.000000 0.000000
									CHANNELS 3 Zrotation Yrotation Xrotation
									End Site
									{
										OFFSET 0.000000 0.000000 0.000000
									}
								}
							}
						}
					}
				}
			}
		}
	}
	JOINT RightUpLeg
	{
		OFFSET -11.289943 0.000000 0.000000
		CHANNELS 3 Zrotation Yrotation Xrotation
		JOINT RightLeg
		{
			OFFSET -0.000000 -38.200325 -0.000000
			CHANNELS 3 Zrotation Yrotation Xrotation
			JOINT RightFoot
			{
				OFFSET -0.000000 -39.900856 -0.000000
				CHANNELS 3 Zrotation Yrotation Xrotation
				JOINT RightToeBase
				{
					OFFSET -0.000000 -0.000000 15.261641
					CHANNELS 3 Zrotation Yrotation Xrotation
					JOINT RightToeBaseEnd
					{
						OFFSET 0.000000 0.000000 7.370709
						CHANNELS 3 Zrotation Yrotation Xrotation
						End Site
						{
							OFFSET 0.000000 0.000000 0.000000
						}
					}
				}
				JOINT RightLegEnd
				{
					OFFSET 0.000000 0.000000 0.000000
					CHANNELS 3 Zrotation Yrotation Xrotation
					End Site
					{
						OFFSET 0.000000 0.000000 0.000000
					}
				}
			}
			JOINT RightUpLegEnd
			{
				OFFSET 0.000000 0.000000 0.000000
				CHANNELS 3 Zrotation Yrotation Xrotation
				End Site
				{
					OFFSET 0.000000 0.000000 0.000000
				}
			}
		}
	}
	JOINT LeftUpLeg
	{
		OFFSET 11.315661 -0.000000 0.000000
		CHANNELS 3 Zrotation Yrotation Xrotation
		JOINT LeftLeg
		{
			OFFSET -0.000000 -38.200325 -0.000000
			CHANNELS 3 Zrotation Yrotation Xrotation
			JOINT LeftFoot
			{
				OFFSET -0.000000 -39.900856 -0.000000
				CHANNELS 3 Zrotation Yrotation Xrotation
				JOINT LeftToeBase
				{
					OFFSET -0.000000 -0.000000 15.261641
					CHANNELS 3 Zrotation Yrotation Xrotation
					JOINT LeftToeBaseEnd
					{
						OFFSET -0.000000 0.000000 7.539996
						CHANNELS 3 Zrotation Yrotation Xrotation
						End Site
						{
							OFFSET 0.000000 0.000000 0.000000
						}
					}
				}
				JOINT LeftLegEnd
				{
					OFFSET 0.000000 0.000000 0.000000
					CHANNELS 3 Zrotation Yrotation Xrotation
					End Site
					{
						OFFSET 0.000000 0.000000 0.000000
					}
				}
			}
			JOINT LeftUpLegEnd
			{
				OFFSET 0.000000 0.000000 0.000000
				CHANNELS 3 Zrotation Yrotation Xrotation
				End Site
				{
					OFFSET 0.000000 0.000000 0.000000
				}
			}
		}
	}
}
MOTION
Frames: 4
Frame Time: 0.016667
6.686928 86.715477 38.584953 3.634697 4.867903 -17.645004 0.373615 0.099672 8.473543 1.948350 -0.125185 1.805703 -4.537693 3.660206 8.585670 -3.394725 1.164330 4.131537 -1.540814 0.048293 7.924526 -0.563687 -0.681221 -2.938087 0.395720 -0.393928 -22.889215 0.000000 0.000000 0.000000 91.120544 0.331611 13.521255 51.404121 -2.010387 15.095592 0.074921 19.594812 86.580505 47.455784 56.230003 38.240623 9.029905 -1.666659 40.728912 0.000016 0.000012 -21.542364 0.000005 0.000024 -14.817483 0.000000 -0.000002 -0.000004 3.479656 0.240090 1.524724 4.836716 -0.219702 0.353725 4.602258 -0.178677 0.280590 -0.000010 0.000009 0.000011 4.228451 0.037971 -1.653352 4.625098 -0.091080 0.128752 4.745765 -0.059055 0.092381 -0.000001 -0.000150 0.000006 8.424685 -0.071313 -6.597987 5.887197 0.168958 -0.164976 6.002756 0.093062 -0.088374 0.000042 0.002883 -0.000007 11.274432 -0.212242 -12.528784 7.381683 0.453374 -0.259473 7.394935 0.274510 -0.256711 0.000999 0.000001 -0.000010 0.000000 0.000000 0.000000 0.000000 0.000000 0.000000 -90.550125 -0.494242 8.181496 -55.683750 -7.553216 -0.325108 -0.575962 -19.506199 83.497040 -85.026886 -56.911098 59.423409 -8.849039 1.545231 40.824341 -0.000012 0.000004 -21.243093 -0.000056 -0.000018 -14.646614 0.001123 0.000016 0.001651 -4.194641 0.184165 -1.020768 -4.557485 -0.106599 0.025555 -4.907337 -0.082128 0.147297 0.000037 0.002745 -0.000011 -6.678802 0.067606 -4.392795 -5.542375 -0.050458 0.001582 -5.603233 -0.014441 0.003572 -0.000018 -0.000012 0.000120 -15.261995 -0.088992 -8.566791 -9.656276 0.073302 -0.071047 -9.464093 0.027292 -0.046677 -0.000915 0.000012 -0.000006 -22.173538 -0.386042 -12.967272 -13.738943 0.214803 -0.233668 -13.617142 0.076797 -0.210258 -0.000905 0.000006 -0.000009 0.000000 0.000000 0.000000 0.000000 0.000000 0.000000 -14.222001 -5.256990 20.671425 -0.383251 -1.284962 15.749181 7.862633 -9.568364 8.850968 -1.947365 1.278157 -17.172739 0.000000 0.000000 0.000000 0.000000 0.000000 0.000000 0.000000 0.000000 0.000000 -3.888780 -6.786546 13.771909 0.156343 0.461760 16.722067 2.115949 3.274718 12.887546 -0.085501 -1.089496 -19.711691 0.000000 0.000000 0.000000 0.000000 0.000000 0.000000 0.000000 0.000000 0.000000 
7.022344 86.688042 38.585041 3.747668 4.769485 -17.666298 0.289554 0.131202 8.502915 1.902854 -0.099314 1.779218 -4.544187 3.781604 8.573535 -3.443280 1.213768 4.108273 -1.370902 -0.036793 7.912497 -0.551696 -0.736333 -2.938109 0.446017 -0.361868 -22.861773 0.000000 0.000000 0.000000 91.046005 0.372183 13.625266 51.381310 -1.827802 15.241763 0.106015 19.654488 86.225914 46.663254 56.079163 37.330505 9.100821 -1.673370 40.697788 0.000016 0.000012 -21.715305 0.000005 0.000024 -14.931631 -0.000000 -0.000002 -0.000003 3.824400 0.239456 1.339516 5.069315 -0.219543 0.346695 4.833790 -0.178506 0.271762 -0.000010 0.000009 0.000011 4.542794 0.036974 -1.786683 4.843384 -0.090785 0.125273 4.967674 -0.058847 0.089138 -0.000002 -0.000158 0.000006 8.755833 -0.071540 -6.681061 6.106342 0.167644 -0.159428 6.228871 0.092427 -0.084664 0.000042 0.002826 -0.000007 11.611895 -0.213314 -12.535106 7.568668 0.450584 -0.246839 7.583549 0.273017 -0.245645 0.000955 0.000001 -0.000011 0.000000 0.000000 0.000000 0.000000 0.000000 0.000000 -90.479492 -0.498642 8.207922 -55.552898 -7.103402 -0.226228 -0.493805 -19.291126 84.217499 -84.661903 -56.350231 58.596920 -9.018715 1.560750 40.752739 -0.000012 0.000004 -21.662241 -0.000054 -0.000018 -14.931655 0.001096 0.000016 0.001724 -5.108544 0.184444 -1.490670 -5.147559 -0.101744 0.053871 -5.501593 -0.078248 0.172899 0.000037 0.002767 -0.000011 -7.477996 0.067905 -4.753477 -6.109129 -0.048452 0.012841 -6.176240 -0.013105 0.013330 -0.000074 -0.000012 0.000121 -15.933470 -0.087445 -8.845529 -10.173198 0.071145 -0.084843 -9.987884 0.025896 -0.057190 -0.000850 0.000012 -0.000006 -22.705595 -0.381131 -13.127391 -14.169408 0.210629 -0.268937 -14.051467 0.073833 -0.240476 -0.000924 0.000006 -0.000009 0.000000 0.000000 0.000000 0.000000 0.000000 0.000000 -14.544566 -5.063581 20.516768 -0.391917 -1.302816 15.974972 8.073719 -9.490621 8.902946 -1.965735 1.277426 -17.208881 0.000000 0.000000 0.000000 0.000000 0.000000 0.000000 0.000000 0.000000 0.000000 -4.253476 -6.608476 13.858817 0.147224 0.426693 16.617208 2.389891 3.401558 12.874407 -0.118135 -1.070483 -19.656475 0.000000 0.000000 0.000000 0.000000 0.000000 0.000000 0.000000 0.000000 0.000000 
7.346421 86.660629 38.581261 3.846372 4.675056 -17.669886 0.207153 0.162892 8.522060 1.857664 -0.075563 1.753916 -4.546065 3.881212 8.549597 -3.478418 1.251988 4.088778 -1.211090 -0.111282 7.897698 -0.539377 -0.779793 -2.937259 0.486228 -0.336953 -22.835976 0.000000 0.000000 0.000000 90.977394 0.408037 13.707899 51.324718 -1.596447 15.373815 0.132106 19.703966 85.934120 46.004551 55.897549 36.578983 9.169414 -1.679232 40.668610 0.000016 0.000012 -21.880102 0.000005 0.000024 -15.041459 -0.000001 -0.000001 -0.000003 4.160450 0.238972 1.155283 5.301170 -0.218779 0.340352 5.063351 -0.177527 0.264059 -0.000009 0.000010 0.000012 4.839267 0.036041 -1.924277 5.059598 -0.090296 0.122483 5.186456 -0.058506 0.086571 -0.000002 -0.000166 0.000007 9.054520 -0.071966 -6.773076 6.314419 0.166086 -0.155876 6.444652 0.091774 -0.082521 0.000041 0.002750 -0.000007 11.917894 -0.214470 -12.555399 7.739971 0.447273 -0.240974 7.757657 0.271243 -0.240637 0.000906 0.000001 -0.000012 0.000000 0.000000 0.000000 0.000000 0.000000 0.000000 -90.399040 -0.499831 8.219327 -55.444370 -6.825769 -0.129116 -0.421431 -19.094481 84.950760 -84.317848 -55.752537 57.826550 -9.165632 1.574225 40.690647 -0.000011 0.000003 -22.024460 -0.000051 -0.000017 -15.179477 0.001047 0.000017 0.001784 -5.895838 0.184502 -1.899766 -5.670724 -0.097514 0.075641 -6.031593 -0.074906 0.191977 0.000038 0.002779 -0.000011 -8.164600 0.068157 -5.073487 -6.610409 -0.046738 0.021283 -6.684594 -0.012041 0.020884 -0.000115 -0.000013 0.000119 -16.508163 -0.086013 -9.110802 -10.623144 0.069236 -0.094589 -10.444133 0.024789 -0.064400 -0.000786 0.000012 -0.000006 -23.164803 -0.375734 -13.299521 -14.541883 0.207162 -0.292562 -14.428658 0.071615 -0.261073 -0.000942 0.000006 -0.000009 0.000000 0.000000 0.000000 0.000000 0.000000 0.000000 -14.841230 -4.876004 20.338451 -0.400274 -1.320278 16.194321 8.269536 -9.414694 8.967784 -1.982384 1.276590 -17.237989 0.000000 0.000000 0.000000 0.000000 0.000000 0.000000 0.000000 0.000000 0.000000 -4.592971 -6.438212 13.930140 0.138444 0.391383 16.506693 2.652103 3.522454 12.864806 -0.148752 -1.050563 -19.607025 0.000000 0.000000 0.000000 0.000000 0.000000 0.000000 0.000000 0.000000 0.000000 
7.658829 86.634621 38.574554 3.932295 4.585204 -17.658216 0.126147 0.195333 8.529394 1.814783 -0.054291 1.731246 -4.546347 3.961995 8.513230 -3.502702 1.281134 4.076966 -1.062393 -0.176377 7.894809 -0.526008 -0.813525 -2.928801 0.517287 -0.319467 -22.817402 0.000000 0.000000 0.000000 90.916023 0.438232 13.768506 51.242928 -1.330816 15.487856 0.152705 19.745987 85.678017 45.502007 55.694565 36.012493 9.237016 -1.684503 40.640423 0.000016 0.000012 -22.041273 0.000005 0.000024 -15.150704 -0.000001 -0.000001 -0.000003 4.493735 0.238920 0.974783 5.537438 -0.217523 0.333740 5.296402 -0.175837 0.256761 -0.000009 0.000010 0.000012 5.126259 0.035275 -2.062022 5.280034 -0.089659 0.120067 5.408413 -0.058060 0.084365 -0.000002 -0.000172 0.000007 9.333182 -0.072544 -6.867356 6.521116 0.164371 -0.153519 6.659370 0.091097 -0.081322 0.000041 0.002661 -0.000008 12.201265 -0.215987 -12.581935 7.906509 0.443539 -0.238622 7.927438 0.269159 -0.239079 0.000855 0.000001 -0.000013 0.000000 0.000000 0.000000 0.000000 0.000000 0.000000 -90.310898 -0.498511 8.213623 -55.361221 -6.706433 -0.030461 -0.359299 -18.917620 85.706795 -84.024033 -55.124420 57.167965 -9.276142 1.584175 40.644234 -0.000010 0.000003 -22.295488 -0.000047 -0.000017 -15.366849 0.000971 0.000017 0.001829 -6.484326 0.184594 -2.217124 -6.075896 -0.094286 0.088884 -6.444902 -0.072441 0.202979 0.000039 0.002781 -0.000011 -8.675569 0.068440 -5.331884 -6.997539 -0.045466 0.026224 -7.079187 -0.011343 0.025623 -0.000142 -0.000013 0.000116 -16.934399 -0.084834 -9.351321 -10.966476 0.067732 -0.099577 -10.792455 0.024057 -0.067793 -0.000726 0.000013 -0.000006 -23.508995 -0.370321 -13.485003 -14.827188 0.204776 -0.302723 -14.718794 0.070408 -0.270724 -0.000957 0.000006 -0.000009 0.000000 0.000000 0.000000 0.000000 0.000000 0.000000 -15.111706 -4.690897 20.137075 -0.408340 -1.337180 16.414383 8.450513 -9.346277 9.046439 -1.997322 1.275261 -17.262129 0.000000 0.000000 0.000000 0.000000 0.000000 0.000000 0.000000 0.000000 0.000000 -4.908673 -6.276597 13.991407 0.129883 0.356195 16.386082 2.903417 3.642380 12.860559 -0.176567 -1.029578 -19.561806 0.000000 0.000000 0.000000 0.000000 0.000000 0.000000 0.000000 0.000000 0.000000 
